mtllib ./wieza.mtl
g Cylinder
v 8.660254 0 -5
v 0 0 0
v 10 0 0
v 5 0 -8.660254
v 6.123233E-16 0 -10
v -5 0 -8.660254
v -8.660254 0 -5
v -10 0 -1.224647E-15
v -8.660254 0 5
v -5 0 8.660254
v -1.83697E-15 0 10
v 5 0 8.660254
v 8.660254 0 5
v 8.660254 0 -5
v 10 0 0
v 10 60 0
v 8.660254 60 -5
v 5 0 -8.660254
v 5 60 -8.660254
v 6.123233E-16 0 -10
v 6.123233E-16 60 -10
v -5 0 -8.660254
v -5 60 -8.660254
v -8.660254 0 -5
v -8.660254 60 -5
v -10 0 -1.224647E-15
v -10 60 -1.224647E-15
v -8.660254 0 5
v -8.660254 60 5
v -5 0 8.660254
v -5 60 8.660254
v -1.83697E-15 0 10
v -1.83697E-15 60 10
v 5 0 8.660254
v 5 60 8.660254
v 8.660254 0 5
v 8.660254 60 5
v 10 0 0
v 10 60 0
v 8.660254 60 -5
v 10 60 0
v 0 60 0
v 5 60 -8.660254
v 6.123233E-16 60 -10
v -5 60 -8.660254
v -8.660254 60 -5
v -10 60 -1.224647E-15
v -8.660254 60 5
v -5 60 8.660254
v -1.83697E-15 60 10
v 5 60 8.660254
v 8.660254 60 5

vn 0 -1 0
vn 0 -1 0
vn 0 -1 0
vn 0 -1 0
vn 0 -1 0
vn 0 -1 0
vn 0 -1 0
vn 0 -1 0
vn 0 -1 0
vn 0 -1 0
vn 0 -1 0
vn 0 -1 0
vn 0 -1 0
vn 0.8660253 0 -0.5000001
vn 1 0 0
vn 1 0 0
vn 0.8660253 0 -0.5000001
vn 0.5000001 0 -0.8660253
vn 0.5000001 0 -0.8660253
vn 0 0 -1
vn 0 0 -1
vn -0.5000001 0 -0.8660253
vn -0.5000001 0 -0.8660253
vn -0.8660253 0 -0.5000001
vn -0.8660253 0 -0.5000001
vn -1 0 0
vn -1 0 0
vn -0.8660253 0 0.5000001
vn -0.8660253 0 0.5000001
vn -0.5000001 0 0.8660253
vn -0.5000001 0 0.8660253
vn 0 0 1
vn 0 0 1
vn 0.5000001 0 0.8660253
vn 0.5000001 0 0.8660253
vn 0.8660253 0 0.5000001
vn 0.8660253 0 0.5000001
vn 1 0 0
vn 1 0 0
vn 0 1 0
vn 0 1 0
vn 0 1 0
vn 0 1 0
vn 0 1 0
vn 0 1 0
vn 0 1 0
vn 0 1 0
vn 0 1 0
vn 0 1 0
vn 0 1 0
vn 0 1 0
vn 0 1 0

vt 0.0669873 0.75
vt 0.5 0.5
vt 0 0.5
vt 0.25 0.9330127
vt 0.5 1
vt 0.75 0.9330127
vt 0.9330127 0.75
vt 1 0.5
vt 0.9330127 0.25
vt 0.75 0.06698728
vt 0.5 0
vt 0.25 0.06698728
vt 0.0669873 0.25
vt 0.08333334 0
vt 0 0
vt 0 1
vt 0.08333334 1
vt 0.1666667 0
vt 0.1666667 1
vt 0.25 0
vt 0.25 1
vt 0.3333333 0
vt 0.3333333 1
vt 0.4166667 0
vt 0.4166667 1
vt 0.5 0
vt 0.5 1
vt 0.5833333 0
vt 0.5833333 1
vt 0.6666667 0
vt 0.6666667 1
vt 0.75 0
vt 0.75 1
vt 0.8333333 0
vt 0.8333333 1
vt 0.9166667 0
vt 0.9166667 1
vt 1 0
vt 1 1
vt 0.9330127 0.75
vt 1 0.5
vt 0.5 0.5
vt 0.75 0.9330127
vt 0.5 1
vt 0.25 0.9330127
vt 0.0669873 0.75
vt 0 0.5
vt 0.0669873 0.25
vt 0.25 0.06698728
vt 0.5 0
vt 0.75 0.06698728
vt 0.9330127 0.25

usemtl Standard(Clone)
usemap Standard(Clone)
f 2/2/2 1/1/1 3/3/3
f 2/2/2 4/4/4 1/1/1
f 2/2/2 5/5/5 4/4/4
f 2/2/2 6/6/6 5/5/5
f 2/2/2 7/7/7 6/6/6
f 2/2/2 8/8/8 7/7/7
f 2/2/2 9/9/9 8/8/8
f 2/2/2 10/10/10 9/9/9
f 2/2/2 11/11/11 10/10/10
f 2/2/2 12/12/12 11/11/11
f 2/2/2 13/13/13 12/12/12
f 2/2/2 3/3/3 13/13/13
f 15/15/15 14/14/14 16/16/16
f 16/16/16 14/14/14 17/17/17
f 14/14/14 18/18/18 17/17/17
f 17/17/17 18/18/18 19/19/19
f 18/18/18 20/20/20 19/19/19
f 19/19/19 20/20/20 21/21/21
f 20/20/20 22/22/22 21/21/21
f 21/21/21 22/22/22 23/23/23
f 22/22/22 24/24/24 23/23/23
f 23/23/23 24/24/24 25/25/25
f 24/24/24 26/26/26 25/25/25
f 25/25/25 26/26/26 27/27/27
f 26/26/26 28/28/28 27/27/27
f 27/27/27 28/28/28 29/29/29
f 28/28/28 30/30/30 29/29/29
f 29/29/29 30/30/30 31/31/31
f 30/30/30 32/32/32 31/31/31
f 31/31/31 32/32/32 33/33/33
f 32/32/32 34/34/34 33/33/33
f 33/33/33 34/34/34 35/35/35
f 34/34/34 36/36/36 35/35/35
f 35/35/35 36/36/36 37/37/37
f 36/36/36 38/38/38 37/37/37
f 37/37/37 38/38/38 39/39/39
f 41/41/41 40/40/40 42/42/42
f 40/40/40 43/43/43 42/42/42
f 43/43/43 44/44/44 42/42/42
f 44/44/44 45/45/45 42/42/42
f 45/45/45 46/46/46 42/42/42
f 46/46/46 47/47/47 42/42/42
f 47/47/47 48/48/48 42/42/42
f 48/48/48 49/49/49 42/42/42
f 49/49/49 50/50/50 42/42/42
f 50/50/50 51/51/51 42/42/42
f 51/51/51 52/52/52 42/42/42
f 52/52/52 41/41/41 42/42/42
g Cylinder
v 17.32051 61.25 -10
v 0 61.25 0
v 20 61.25 0
v 10 61.25 -17.32051
v 1.224647E-15 61.25 -20
v -10 61.25 -17.32051
v -17.32051 61.25 -10
v -20 61.25 -2.449293E-15
v -17.32051 61.25 10
v -10 61.25 17.32051
v -3.67394E-15 61.25 20
v 10 61.25 17.32051
v 17.32051 61.25 10
v 17.32051 61.25 -10
v 20 61.25 0
v 20 68.75 0
v 17.32051 68.75 -10
v 10 61.25 -17.32051
v 10 68.75 -17.32051
v 1.224647E-15 61.25 -20
v 1.224647E-15 68.75 -20
v -10 61.25 -17.32051
v -10 68.75 -17.32051
v -17.32051 61.25 -10
v -17.32051 68.75 -10
v -20 61.25 -2.449293E-15
v -20 68.75 -2.449293E-15
v -17.32051 61.25 10
v -17.32051 68.75 10
v -10 61.25 17.32051
v -10 68.75 17.32051
v -3.67394E-15 61.25 20
v -3.67394E-15 68.75 20
v 10 61.25 17.32051
v 10 68.75 17.32051
v 17.32051 61.25 10
v 17.32051 68.75 10
v 20 61.25 0
v 20 68.75 0
v 17.32051 68.75 -10
v 20 68.75 0
v 0 68.75 0
v 10 68.75 -17.32051
v 1.224647E-15 68.75 -20
v -10 68.75 -17.32051
v -17.32051 68.75 -10
v -20 68.75 -2.449293E-15
v -17.32051 68.75 10
v -10 68.75 17.32051
v -3.67394E-15 68.75 20
v 10 68.75 17.32051
v 17.32051 68.75 10

vn 0 -1 0
vn 0 -1 0
vn 0 -1 0
vn 0 -1 0
vn 0 -1 0
vn 0 -1 0
vn 0 -1 0
vn 0 -1 0
vn 0 -1 0
vn 0 -1 0
vn 0 -1 0
vn 0 -1 0
vn 0 -1 0
vn 0.8660253 0 -0.5000001
vn 1 0 0
vn 1 0 0
vn 0.8660253 0 -0.5000001
vn 0.5000001 0 -0.8660253
vn 0.5000001 0 -0.8660253
vn 0 0 -1
vn 0 0 -1
vn -0.5000001 0 -0.8660253
vn -0.5000001 0 -0.8660253
vn -0.8660253 0 -0.5000001
vn -0.8660253 0 -0.5000001
vn -1 0 0
vn -1 0 0
vn -0.8660253 0 0.5000001
vn -0.8660253 0 0.5000001
vn -0.5000001 0 0.8660253
vn -0.5000001 0 0.8660253
vn 0 0 1
vn 0 0 1
vn 0.5000001 0 0.8660253
vn 0.5000001 0 0.8660253
vn 0.8660253 0 0.5000001
vn 0.8660253 0 0.5000001
vn 1 0 0
vn 1 0 0
vn 0 1 0
vn 0 1 0
vn 0 1 0
vn 0 1 0
vn 0 1 0
vn 0 1 0
vn 0 1 0
vn 0 1 0
vn 0 1 0
vn 0 1 0
vn 0 1 0
vn 0 1 0
vn 0 1 0

vt 0.0669873 0.75
vt 0.5 0.5
vt 0 0.5
vt 0.25 0.9330127
vt 0.5 1
vt 0.75 0.9330127
vt 0.9330127 0.75
vt 1 0.5
vt 0.9330127 0.25
vt 0.75 0.06698728
vt 0.5 0
vt 0.25 0.06698728
vt 0.0669873 0.25
vt 0.08333334 0
vt 0 0
vt 0 1
vt 0.08333334 1
vt 0.1666667 0
vt 0.1666667 1
vt 0.25 0
vt 0.25 1
vt 0.3333333 0
vt 0.3333333 1
vt 0.4166667 0
vt 0.4166667 1
vt 0.5 0
vt 0.5 1
vt 0.5833333 0
vt 0.5833333 1
vt 0.6666667 0
vt 0.6666667 1
vt 0.75 0
vt 0.75 1
vt 0.8333333 0
vt 0.8333333 1
vt 0.9166667 0
vt 0.9166667 1
vt 1 0
vt 1 1
vt 0.9330127 0.75
vt 1 0.5
vt 0.5 0.5
vt 0.75 0.9330127
vt 0.5 1
vt 0.25 0.9330127
vt 0.0669873 0.75
vt 0 0.5
vt 0.0669873 0.25
vt 0.25 0.06698728
vt 0.5 0
vt 0.75 0.06698728
vt 0.9330127 0.25

usemtl Standard(Clone)
usemap Standard(Clone)
f 54/54/54 53/53/53 55/55/55
f 54/54/54 56/56/56 53/53/53
f 54/54/54 57/57/57 56/56/56
f 54/54/54 58/58/58 57/57/57
f 54/54/54 59/59/59 58/58/58
f 54/54/54 60/60/60 59/59/59
f 54/54/54 61/61/61 60/60/60
f 54/54/54 62/62/62 61/61/61
f 54/54/54 63/63/63 62/62/62
f 54/54/54 64/64/64 63/63/63
f 54/54/54 65/65/65 64/64/64
f 54/54/54 55/55/55 65/65/65
f 67/67/67 66/66/66 68/68/68
f 68/68/68 66/66/66 69/69/69
f 66/66/66 70/70/70 69/69/69
f 69/69/69 70/70/70 71/71/71
f 70/70/70 72/72/72 71/71/71
f 71/71/71 72/72/72 73/73/73
f 72/72/72 74/74/74 73/73/73
f 73/73/73 74/74/74 75/75/75
f 74/74/74 76/76/76 75/75/75
f 75/75/75 76/76/76 77/77/77
f 76/76/76 78/78/78 77/77/77
f 77/77/77 78/78/78 79/79/79
f 78/78/78 80/80/80 79/79/79
f 79/79/79 80/80/80 81/81/81
f 80/80/80 82/82/82 81/81/81
f 81/81/81 82/82/82 83/83/83
f 82/82/82 84/84/84 83/83/83
f 83/83/83 84/84/84 85/85/85
f 84/84/84 86/86/86 85/85/85
f 85/85/85 86/86/86 87/87/87
f 86/86/86 88/88/88 87/87/87
f 87/87/87 88/88/88 89/89/89
f 88/88/88 90/90/90 89/89/89
f 89/89/89 90/90/90 91/91/91
f 93/93/93 92/92/92 94/94/94
f 92/92/92 95/95/95 94/94/94
f 95/95/95 96/96/96 94/94/94
f 96/96/96 97/97/97 94/94/94
f 97/97/97 98/98/98 94/94/94
f 98/98/98 99/99/99 94/94/94
f 99/99/99 100/100/100 94/94/94
f 100/100/100 101/101/101 94/94/94
f 101/101/101 102/102/102 94/94/94
f 102/102/102 103/103/103 94/94/94
f 103/103/103 104/104/104 94/94/94
f 104/104/104 93/93/93 94/94/94
